<svg width="31" height="25" viewBox="0 0 31 25" fill="none" xmlns="http://www.w3.org/2000/svg">
<path d="M8.08 24.56C6.4 24.38 4.78 23.6 3.22 22.22C1.66 20.78 0.88 19.1 0.88 17.18C0.88 15.2 2.11 12.44 4.57 8.9C7.03 5.3 9.43 2.36 11.77 0.0799979L13.84 1.79C9.7 7.85 7.63 11.81 7.63 13.67C7.63 14.57 8.08 15.23 8.98 15.65C9.88 16.01 11.35 16.28 13.39 16.46L14.11 18.17C12.61 20.69 10.6 22.82 8.08 24.56ZM24.82 24.56C23.14 24.38 21.52 23.6 19.96 22.22C18.4 20.78 17.62 19.1 17.62 17.18C17.62 15.2 18.85 12.44 21.31 8.9C23.77 5.3 26.17 2.36 28.51 0.0799979L30.58 1.79C26.44 7.85 24.37 11.81 24.37 13.67C24.37 14.57 24.82 15.23 25.72 15.65C26.62 16.01 28.09 16.28 30.13 16.46L30.85 18.17C30.31 19.13 29.41 20.27 28.15 21.59C26.95 22.85 25.84 23.84 24.82 24.56Z" fill="black"/>
</svg>
